<?xml version="1.0" encoding="utf-8"?>

<!-- Uploaded to: SVG Repo, www.svgrepo.com, Generator: SVG Repo Mixer Tools -->
<svg version="1.1" id="Icons" xmlns="http://www.w3.org/2000/svg" xmlns:xlink="http://www.w3.org/1999/xlink" 
	 viewBox="0 0 32 32" xml:space="preserve">
<style type="text/css">
	.st0{fill:none;stroke:#000000;stroke-width:2;stroke-linecap:round;stroke-linejoin:round;stroke-miterlimit:10;}
</style>
<path d="M17,10c-6.1,0-11,4.9-11,11s4.9,11,11,11s11-4.9,11-11S23.1,10,17,10z M19,26h-4c-0.6,0-1-0.4-1-1s0.4-1,1-1h1v-4h-1
	c-0.6,0-1-0.4-1-1s0.4-1,1-1h1v-1c0-0.6,0.4-1,1-1s1,0.4,1,1v7h1c0.6,0,1,0.4,1,1S19.6,26,19,26z"/>
<path d="M13.4,8.5L13,0H8C7.7,0,7.4,0.1,7.2,0.4S7,0.9,7,1.2l1.8,9.7C10.2,9.8,11.7,9,13.4,8.5z"/>
<path d="M17,8c0.6,0,1.1,0,1.7,0.1L19,0H15l0.3,8.1C15.9,8,16.4,8,17,8z"/>
<path d="M25.2,10.9L27,1.2c0.1-0.3,0-0.6-0.2-0.8S26.3,0,26,0h-5l-0.3,8.5C22.3,9,23.8,9.8,25.2,10.9z"/>
</svg>